<?xml version="1.0" encoding="UTF-8"?>
<svg id="Layer_1" data-name="Layer 1" xmlns="http://www.w3.org/2000/svg" version="1.1" viewBox="0 0 800 800">
  <defs>
    <style>
      .cls-1 {
        fill: #000;
      }

      .cls-1, .cls-2 {
        stroke-width: 0px;
      }

      .cls-2 {
        fill: #f286b6;
      }
    </style>
  </defs>
  <path class="cls-1" d="M400.23,666.55c-90.23,0-180.46-.01-270.69,0-34.02,0-68.03.09-102.05.14-13.24.02-19.29-5.9-19.29-19.21-.02-67.31.03-134.61.04-201.92,0-54.16,0-108.32,0-162.48,0-45.4,0-90.8,0-136.2,0-10.72,6.72-17.43,17.5-17.43,201.48,0,402.96,0,604.44,0,47.89,0,95.77,0,143.66-.01,11.26,0,17.97,6.68,17.97,17.92,0,127.17,0,254.33,0,381.5,0,40.44,0,80.88,0,121.32,0,9.77-6.63,16.34-17.09,16.37-29.49.1-58.98,0-88.47,0-95.34,0-190.68,0-286.01,0ZM733.1,162.92H63.89c112.43,104.42,224.05,208.1,336.07,312.14,110.95-103.96,221.75-207.77,333.14-312.14ZM66.18,633.48h667.54c-75.62-71.75-150.59-142.86-225.6-214.03-.86.68-1.32,1.01-1.73,1.39-31.2,29.2-62.42,58.37-93.56,87.64-8.13,7.64-17.23,7.91-25.26.43-28.29-26.33-56.6-52.65-84.91-78.97-3.8-3.53-7.63-7.02-11.59-10.66-74.98,71.41-149.62,142.5-224.89,214.19ZM758.56,611.41V184.53c-75.89,71.09-151.04,141.49-226.35,212.04,75.53,71.69,150.61,142.95,226.35,214.84ZM41.24,611.45c75.5-71.89,150.41-143.22,225.57-214.79-75.15-69.83-150.06-139.43-225.57-209.58v424.37Z"/>
  <path class="cls-2" d="M400.23,666.55c-90.23,0-180.46-.01-270.69,0-34.02,0-68.03.09-102.05.14-13.24.02-19.29-5.9-19.29-19.21-.02-67.31.03-134.61.04-201.92,0-54.16,0-108.32,0-162.48,0-45.4,0-90.8,0-136.2,0-10.72,6.72-17.43,17.5-17.43,201.48,0,402.96,0,604.44,0,47.89,0,95.77,0,143.66-.01,11.26,0,17.97,6.68,17.97,17.92,0,127.17,0,254.33,0,381.5,0,40.44,0,80.88,0,121.32,0,9.77-6.63,16.34-17.09,16.37-29.49.1-58.98,0-88.47,0-95.34,0-190.68,0-286.01,0ZM733.1,162.92H63.89c112.43,104.42,224.05,208.1,336.07,312.14,110.95-103.96,221.75-207.77,333.14-312.14ZM66.18,633.48h667.54c-75.62-71.75-150.59-142.86-225.6-214.03-.86.68-1.32,1.01-1.73,1.39-31.2,29.2-62.42,58.37-93.56,87.64-8.13,7.64-17.23,7.91-25.26.43-28.29-26.33-56.6-52.65-84.91-78.97-3.8-3.53-7.63-7.02-11.59-10.66-74.98,71.41-149.62,142.5-224.89,214.19ZM758.56,611.41V184.53c-75.89,71.09-151.04,141.49-226.35,212.04,75.53,71.69,150.61,142.95,226.35,214.84ZM41.24,611.45c75.5-71.89,150.41-143.22,225.57-214.79-75.15-69.83-150.06-139.43-225.57-209.58v424.37Z"/>
</svg>