<?xml version="1.0" encoding="UTF-8"?>
<svg id="Layer_1" data-name="Layer 1" xmlns="http://www.w3.org/2000/svg" version="1.1" viewBox="0 0 800 800">
  <defs>
    <style>
      .cls-1 {
        fill: #ff86ba;
        stroke-width: 0px;
      }
    </style>
  </defs>
  <path class="cls-1" d="M.01,652.29c89.67,8.07,168.89-13.53,240.92-67.55-74.99-6.76-124.96-44.58-153.07-114.62,24.94,2.78,48.1,3.51,73.04-3.36-39.32-9.66-70.4-28.87-94.3-58.99-23.84-30.04-35.62-64.35-35.68-104,22.88,11.5,45.91,19.03,71.38,19.62C30.32,262.68,13.63,190.45,53.64,103.66c89.67,105.57,201.85,163.35,338.17,172.54-.59-16.35-2.03-31.88-1.57-47.37,1.99-67.59,53.68-131.8,119.25-148.44,60.7-15.42,114.01-1.57,159.62,41.35,3.39,3.19,6.22,4.07,10.99,3.01,33.85-7.52,65.76-19.9,97.82-38.41-12.84,38.87-35.94,67.04-67.63,89.11,30.74-2.68,59.69-11.75,89.71-23.84-20.99,30.86-44.37,56.69-72.73,77.65-7.17,5.31-9.05,10.87-8.87,19.54,1.57,75.44-15.14,147.01-47.83,214.8-39.26,81.37-96.25,147.25-173.38,195-54.89,33.99-114.68,54.23-178.62,62.69-56.15,7.43-111.93,5.64-167.3-6.2-52.75-11.29-101.93-31.5-147.69-60.06-.64-.4-1.21-.91-3.57-2.69v-.03Z"/>
</svg>